# xmcd CD database file
#
# Track frame offsets:
#	150
#	20200
#	45275
#	67125
#	90350
#	123350
#	138800
#
# Disc length: 2379 seconds
#
# Revision: 4
# Processed by: cddbd v1.4PL0 Copyright (c) Steve Scherf et al.
# Submitted via: CDex 1.51
#
DISCID=56094907
DTITLE=Sonny Stitt and Richie Cole - Battle of the Saxes
DYEAR=1981
DGENRE=Jazz
TTITLE0=Laura
TTITLE1=Serenada Espana
TTITLE2=I Hear a Rhapsody
TTITLE3=Lovers Concerto
TTITLE4=Cherokee
TTITLE5=Sonny's Blues
TTITLE6=The Night has a Thousand Eyes
EXTD=YEAR: 1981
EXTT0=
EXTT1=
EXTT2=
EXTT3=
EXTT4=
EXTT5=
EXTT6=
PLAYORDER=
